<svg version="1.1" id="Layer_1" xmlns="http://www.w3.org/2000/svg" xmlns:xlink="http://www.w3.org/1999/xlink" x="0px" y="0px" width="32px" height="32px" viewBox="0 0 32 32" enable-background="new 0 0 32 32" xml:space="preserve">
  <g id="main">
    <g id="icon">
      <path d="M16.59,9.077L16.6,9.08L17.58,9.432L18.46,9.928L19.24,10.55L19.9,11.28L25.67,6.584L24.98,5.779L24.22,5.029L23.41,4.336L22.54,3.705L21.61,3.142L20.63,2.649L19.6,2.233L18.52,1.896L18.5,1.889zM14.06,10.74L13.23,11L12.48,11.4L11.82,11.95L11.28,12.6L10.87,13.35L10.61,14.19L10.52,15.08L10.61,15.97L10.87,16.8L11.28,17.56L11.82,18.21L12.48,18.76L13.23,19.16L14.06,19.42L14.96,19.51L15.85,19.42L16.68,19.16L17.43,18.76L18.09,18.21L18.63,17.56L19.04,16.8L19.3,15.97L19.39,15.08L19.3,14.19L19.04,13.35L18.63,12.6L18.09,11.95L17.43,11.4L16.68,11L15.85,10.74L14.96,10.65zM15.51,12.4L16.02,12.56L16.48,12.82L16.89,13.15L17.22,13.55L17.47,14.02L17.63,14.53L17.69,15.08L17.63,15.63L17.47,16.14L17.22,16.61L16.89,17.01L16.48,17.34L16.02,17.6L15.51,17.75L14.96,17.81L14.41,17.75L13.89,17.6L13.43,17.34L13.03,17.01L12.69,16.61L12.44,16.14L12.28,15.63L12.23,15.08L12.28,14.53L12.44,14.02L12.69,13.55L13.03,13.15L13.43,12.82L13.89,12.56L14.41,12.4L14.96,12.35zM14.62,13.24L14.27,13.35L13.96,13.52L13.68,13.75L13.46,14.02L13.29,14.34L13.18,14.68L13.14,15.06L13.18,15.43L13.29,15.78L13.46,16.09L13.68,16.37L13.96,16.59L14.27,16.76L14.62,16.87L14.99,16.91L15.37,16.87L15.71,16.76L16.03,16.59L16.3,16.37L16.53,16.09L16.7,15.78L16.81,15.43L16.84,15.06L16.81,14.68L16.7,14.34L16.53,14.02L16.3,13.75L16.03,13.52L15.71,13.35L15.37,13.24L14.99,13.21zM4.412,23.61L5.084,24.38L5.814,25.1L6.6,25.77L7.441,26.38L8.333,26.92L9.275,27.41L10.26,27.82L11.3,28.15L13.32,20.99L12.4,20.66L11.57,20.19L10.83,19.61L10.19,18.93zz" fill="#FFFFFF"/>
      <path d="M13.45,0.1506L11.96,0.3775L10.53,0.7469L9.151,1.251L7.841,1.882L6.606,2.632L5.453,3.495L4.389,4.462L3.421,5.526L2.559,6.679L1.809,7.914L1.178,9.224L0.6736,10.6L0.3045,12.04L0.07754,13.52L0.0001953,15.06L0.07754,16.59L0.3045,18.08L0.6736,19.51L1.178,20.89L1.808,22.2L2.559,23.43L3.421,24.59L4.389,25.65L5.453,26.62L6.606,27.48L7.841,28.23L9.151,28.86L10.53,29.37L11.96,29.74L13.45,29.96L14.98,30.04L16.52,29.96L17.75,29.77L17.65,29.6L17.51,29.07L17.56,28.53L17.66,28.27L17.8,28.02L18.45,27.1L18.34,26.81L17.31,26.63L17.04,26.56L16.79,26.44L16.37,26.09L16.1,25.62L16.03,25.35L16,25.07L16,23.88L16.03,23.6L16.1,23.33L16.37,22.86L16.79,22.51L17.04,22.39L17.31,22.32L18.41,22.12L18.55,21.78L17.93,20.89L17.78,20.64L17.69,20.38L17.64,19.84L17.78,19.31L17.92,19.07L18.1,18.86L18.94,18.02L19.18,17.82L19.46,17.67L19.75,17.58L20.06,17.55L20.54,17.63L20.98,17.84L21.95,18.53L22.17,18.44L22.37,17.31L22.44,17.04L22.56,16.79L22.91,16.37L23.38,16.1L23.65,16.03L23.93,16L25.12,16L25.4,16.03L25.67,16.1L26.14,16.37L26.49,16.79L26.61,17.04L26.68,17.31L26.89,18.51L27.18,18.63L28.11,17.98L28.54,17.76L29.02,17.69L29.34,17.72L29.63,17.81L29.7,17.84L29.89,16.59L29.97,15.06L29.89,13.52L29.66,12.04L29.29,10.6L28.79,9.224L28.16,7.914L27.41,6.679L26.55,5.526L25.58,4.462L24.51,3.495L23.36,2.632L22.13,1.882L20.82,1.251L19.44,0.7469L18,0.3775L16.52,0.1506L14.98,0.07324zM18.52,1.896L19.6,2.233L20.63,2.649L21.61,3.142L22.54,3.705L23.41,4.336L24.22,5.029L24.98,5.779L25.67,6.584L19.9,11.28L19.24,10.55L18.46,9.928L17.58,9.432L16.6,9.08L16.59,9.077L18.5,1.889zM15.85,10.74L16.68,11L17.43,11.4L18.09,11.95L18.63,12.6L19.04,13.35L19.3,14.19L19.39,15.08L19.3,15.97L19.04,16.8L18.63,17.56L18.09,18.21L17.43,18.76L16.68,19.16L15.85,19.42L14.96,19.51L14.06,19.42L13.23,19.16L12.48,18.76L11.82,18.21L11.28,17.56L10.87,16.8L10.61,15.97L10.52,15.08L10.61,14.19L10.87,13.35L11.28,12.6L11.82,11.95L12.48,11.4L13.23,11L14.06,10.74L14.96,10.65zM14.41,12.4L13.89,12.56L13.43,12.82L13.03,13.15L12.69,13.55L12.44,14.02L12.28,14.53L12.23,15.08L12.28,15.63L12.44,16.14L12.69,16.61L13.03,17.01L13.43,17.34L13.89,17.6L14.41,17.75L14.96,17.81L15.51,17.75L16.02,17.6L16.48,17.34L16.89,17.01L17.22,16.61L17.47,16.14L17.63,15.63L17.69,15.08L17.63,14.53L17.47,14.02L17.22,13.55L16.89,13.15L16.48,12.82L16.02,12.56L15.51,12.4L14.96,12.35zM15.37,13.24L15.71,13.35L16.03,13.52L16.3,13.75L16.53,14.02L16.7,14.34L16.81,14.68L16.84,15.06L16.81,15.43L16.7,15.78L16.53,16.09L16.3,16.37L16.03,16.59L15.71,16.76L15.37,16.87L14.99,16.91L14.62,16.87L14.27,16.76L13.96,16.59L13.68,16.37L13.46,16.09L13.29,15.78L13.18,15.43L13.14,15.06L13.18,14.68L13.29,14.34L13.46,14.02L13.68,13.75L13.96,13.52L14.27,13.35L14.62,13.24L14.99,13.21zM10.83,19.61L11.57,20.19L12.4,20.66L13.32,20.99L11.3,28.15L10.26,27.82L9.274,27.41L8.333,26.92L7.441,26.38L6.6,25.77L5.814,25.1L5.083,24.38L4.412,23.61L10.19,18.93zz" fill="#797979"/>
    </g>
    <g id="overlay">
      <path d="M32,25.1684v-1.1862c0,-0.2849,-0.2049,-0.5284,-0.4855,-0.5773l-1.7273,-0.3005c-0.111,-0.4044,-0.2712,-0.8016,-0.4802,-1.1849l1.0345,-1.4702c0.1639,-0.233,0.1365,-0.5501,-0.0649,-0.7515l-0.8389,-0.8389c-0.2014,-0.2014,-0.5185,-0.2288,-0.7515,-0.0649l-1.4282,1.0049c-0.3951,-0.2322,-0.8161,-0.4135,-1.2529,-0.5414l-0.3083,-1.772c-0.0488,-0.2806,-0.2924,-0.4855,-0.5773,-0.4855h-1.1864c-0.2849,0,-0.5284,0.2049,-0.5773,0.4855l-0.3003,1.7262c-0.4096,0.107,-0.8125,0.2629,-1.2013,0.4699l-1.454,-1.023c-0.233,-0.1639,-0.5501,-0.1365,-0.7515,0.0649l-0.8389,0.8389c-0.2014,0.2014,-0.2288,0.5185,-0.0649,0.7515l0.9738,1.384c-0.2485,0.4108,-0.416,0.8511,-0.5502,1.3083l-1.6841,0.2963c-0.2801,0.0493,-0.4844,0.2926,-0.4844,0.5771v1.1883c0,0.2844,0.2043,0.5278,0.4844,0.5771l1.63,0.2869c0.1111,0.4348,0.265,0.8622,0.4886,1.2734l-0.9861,1.3947c-0.1646,0.2328,-0.1377,0.5503,0.0637,0.7522l0.8356,0.8373c0.2014,0.2018,0.5189,0.2294,0.7521,0.0652l1.3403,-0.9438c0.4257,0.2545,0.8815,0.4252,1.3557,0.5575l0.2893,1.6473c0.0492,0.2802,0.2926,0.4846,0.5771,0.4846h1.1882c0.2844,0,0.5278,-0.2043,0.5771,-0.4844l0.2871,-1.6311c0.4295,-0.1154,0.8514,-0.2731,1.257,-0.4989l1.4109,0.9975c0.2328,0.1646,0.5503,0.1377,0.7522,-0.0637l0.8373,-0.8356c0.2018,-0.2014,0.2294,-0.5189,0.0652,-0.7521l-0.9749,-1.3844c0.2382,-0.41,0.4225,-0.8465,0.5487,-1.3003l1.7351,-0.3013C31.795,25.697,32,25.4533,32,25.1684zM25.7239,26.7708c-1.2182,0.7033,-2.7759,0.2859,-3.4792,-0.9322c-0.7033,-1.2182,-0.2859,-2.7758,0.9322,-3.4792c1.2182,-0.7033,2.7758,-0.2859,3.4792,0.9322C27.3594,24.5098,26.942,26.0675,25.7239,26.7708z" fill-rule="evenodd" fill="#217346"/>
    </g>
  </g>
</svg>
