<svg version="1.1" id="Layer_1" xmlns="http://www.w3.org/2000/svg" xmlns:xlink="http://www.w3.org/1999/xlink" x="0px" y="0px" width="32px" height="32px" viewBox="0 0 32 32" enable-background="new 0 0 32 32" xml:space="preserve">
  <g id="icon" style="opacity:0.5">
    <path d="M21.934,27.117c-0.528,-2.666,-1.468,-2.711,-6.605,-4.525c-0.75,-0.282,-0.962,-0.687,-0.906,-1.266c1.449,-1.732,2.322,-4.535,2.322,-6.494c0,-3.034,-1.035,-4.956,-5.276,-4.956c-0.017,0,0.006,0,0,0c-4.24,0,-5.19,1.922,-5.19,4.956c0,1.959,0.87,4.756,2.319,6.489c0.056,0.579,-0.157,0.987,-0.907,1.269c-5.137,1.815,-6.078,1.86,-6.606,4.526c-0.159,1.072,-0.185,1.521,0.238,2.708c0.476,1.337,7.203,1.162,10.147,1.162c0.012,0,-0.02,0,0,0c2.945,0,9.75,0.175,10.226,-1.161C22.118,28.638,22.092,28.189,21.934,27.117z" fill-rule="evenodd" fill="#dcdcdc"/>
    <path d="M30.867,17.889c0,0,-6.07,-5.981,-8.02,-7.932c0.259,-0.705,0.401,-1.467,0.401,-2.261c0,-3.189,-2.278,-5.846,-5.297,-6.439c-0.471,-0.129,-0.963,-0.206,-1.469,-0.22c-3.636,-0.105,-6.604,2.87,-6.477,6.505c0.013,0.374,0.06,0.739,0.137,1.093c0.414,-0.045,0.854,-0.067,1.322,-0.068c0,0,0.004,0,0.007,0c2.405,0,4.103,0.577,5.193,1.764c1.031,1.123,1.308,2.588,1.374,3.785c0.385,-0.082,0.759,-0.196,1.116,-0.341c0.486,0.452,1.035,1.017,1.035,1.017c0.183,0.174,0.468,0.169,0.645,-0.01l0.35,-0.361l0.817,0.729v2.455c0,0.218,0.176,0.394,0.394,0.394H24v1.537c0,0.256,0.207,0.463,0.463,0.463H26v1.537c0,0.255,0.207,0.463,0.463,0.463h4.075c0.255,0,0.463,-0.207,0.463,-0.463v-3.324C31,18.092,30.952,17.975,30.867,17.889zM14.834,7.662c-0.974,0,-1.764,-0.79,-1.764,-1.764c0,-0.974,0.79,-1.764,1.764,-1.764s1.764,0.79,1.764,1.764C16.598,6.873,15.808,7.662,14.834,7.662z" fill="#EAB765"/>
  </g>
</svg>