<svg version="1.1" id="Layer_1" xmlns="http://www.w3.org/2000/svg" xmlns:xlink="http://www.w3.org/1999/xlink" x="0px" y="0px" width="32px" height="32px" viewBox="0 0 32 32" enable-background="new 0 0 32 32" xml:space="preserve">
  <g id="icon">
    <path d="M26.6,7.245L10.162,4.962l3.375,-3.846c0.104,-0.098,0.241,-0.153,0.385,-0.153c0.032,0,0.065,0.003,0.097,0.008l15.318,2.691c0.215,0.038,0.385,0.192,0.443,0.403c0.058,0.211,-0.008,0.43,-0.173,0.573L26.6,7.245zM4,26.001c0,0.256,0.173,0.481,0.421,0.547L9,27.742V5.858L4,8.665V26.001zM12,22c0,-5.523,4.477,-10,10,-10c1.575,0,3.065,0.365,4.39,1.013l0.01,-4.931L10.078,5.805L10.1,27.699l3.486,-0.293C12.582,25.847,12,23.991,12,22zM6.271,1.675c-0.108,0,-0.213,0.031,-0.304,0.09L1.808,4.452c-0.131,0.085,-0.222,0.222,-0.248,0.376c-0.026,0.154,0.013,0.314,0.109,0.438l2.2,2.589l5.222,-3.016L6.701,1.875C6.594,1.748,6.437,1.675,6.271,1.675z" fill="#797979"/>
    <path d="M24.646,22.014c0,-1.47,-1.192,-2.663,-2.663,-2.663c-1.47,0,-2.663,1.192,-2.663,2.663s1.192,2.663,2.663,2.663C23.454,24.676,24.646,23.484,24.646,22.014zM20.344,22.014c0,-0.906,0.734,-1.64,1.64,-1.64c0.906,0,1.64,0.734,1.64,1.64c0,0.906,-0.734,1.64,-1.64,1.64C21.078,23.654,20.344,22.92,20.344,22.014zM22.006,23.112c-0.614,0,-1.112,-0.498,-1.112,-1.112c0,-0.614,0.498,-1.112,1.112,-1.112c0.614,0,1.112,0.498,1.112,1.112C23.117,22.614,22.62,23.112,22.006,23.112zM28.417,16.911l-3.465,2.822c-0.48,-0.625,-1.161,-1.103,-1.981,-1.323c-0.003,-0.001,-0.005,-0.001,-0.008,-0.002l1.147,-4.317c0.006,0.002,0.011,0.003,0.017,0.004C25.89,14.567,27.364,15.582,28.417,16.911zM21.002,25.567l-1.216,4.299c-1.69,-0.477,-3.108,-1.454,-4.136,-2.727l3.474,-2.809C19.59,24.907,20.234,25.351,21.002,25.567z" fill="#FFFFFF"/>
    <path d="M22,13c-4.971,0,-9,4.029,-9,9c0,4.971,4.029,9,9,9c4.971,0,9,-4.029,9,-9C31,17.029,26.971,13,22,13zM19.321,22.014c0,-1.47,1.192,-2.663,2.663,-2.663c1.47,0,2.663,1.192,2.663,2.663s-1.192,2.663,-2.663,2.663C20.513,24.676,19.321,23.484,19.321,22.014zM28.417,16.911l-3.465,2.822c-0.48,-0.625,-1.161,-1.103,-1.981,-1.323c-0.003,-0.001,-0.005,-0.001,-0.008,-0.002l1.147,-4.317c0.006,0.002,0.011,0.003,0.017,0.004C25.89,14.567,27.364,15.582,28.417,16.911zM15.65,27.139l3.474,-2.809c0.467,0.578,1.11,1.021,1.878,1.238l-1.216,4.299C18.095,29.389,16.678,28.412,15.65,27.139zM21.984,23.654c0.906,0,1.64,-0.734,1.64,-1.64c0,-0.906,-0.734,-1.64,-1.64,-1.64c-0.906,0,-1.64,0.734,-1.64,1.64C20.344,22.92,21.078,23.654,21.984,23.654zM22.006,20.888c0.614,0,1.112,0.498,1.112,1.112c0,0.614,-0.498,1.112,-1.112,1.112c-0.614,0,-1.112,-0.498,-1.112,-1.112C20.894,21.386,21.392,20.888,22.006,20.888z" fill="#217346"/>
  </g>
</svg>