<svg version="1.1" id="Layer_1" xmlns="http://www.w3.org/2000/svg" xmlns:xlink="http://www.w3.org/1999/xlink" x="0px" y="0px" width="32px" height="32px" viewBox="0 0 32 32" enable-background="new 0 0 32 32" xml:space="preserve">
  <g id="icon">
    <path d="M9.0091,10c4.4194,0,8.002,0.857,8.002,2.437s-3.623,2.632,-8.0424,2.632c-4.4194,0,-7.9138,-1.052,-7.9138,-2.632S4.5897,10,9.0091,10zM9.012,15.9182c4.0158,0,7.4887,-0.7242,8.0005,-2.0803c0,1.503,-0.0014,12.4501,-0.0014,12.5926c0,2.9239,-3.5826,4.5695,-8.002,4.5695c-4.4194,0,-8.002,-1.7951,-8.002,-4.5695c0,-0.1182,-0.0239,-12.4166,0.0161,-12.5257C1.6584,15.154,4.8575,15.9182,9.012,15.9182z" fill-rule="evenodd" fill="#EAB765"/>
    <path d="M7.8605,7.4177l0.3007,0.7409c0.0725,0.1786,0.2618,0.2786,0.4484,0.2368l1.0725,-0.2403c0.1976,0.27,0.4354,0.4954,0.6946,0.7017l-0.0379,0.1699c1.4373,0.0582,3.2404,0.2294,4.7375,0.6787l-0.1735,-0.7901c0.2531,-0.194,0.4798,-0.4187,0.6749,-0.6693l1.1509,0.2641c0.1862,0.0427,0.3758,-0.056,0.4494,-0.2341l0.3061,-0.7411c0.0735,-0.178,0.0097,-0.3836,-0.1513,-0.4872l-0.9908,-0.638c0.0357,-0.2816,0.0391,-0.5715,0.0088,-0.8655l1.0192,-0.6489c0.1615,-0.1028,0.2264,-0.3081,0.1538,-0.4864l-0.3024,-0.7428c-0.0726,-0.1783,-0.2617,-0.2781,-0.448,-0.2364l-1.1426,0.2555c-0.1844,-0.2481,-0.398,-0.4711,-0.6352,-0.6648l0.2666,-1.1874c0.0422,-0.1881,-0.0556,-0.3795,-0.2317,-0.4538l-0.7338,-0.3093c-0.1762,-0.0743,-0.3797,-0.0098,-0.4823,0.1528l-0.6312,1.0002c-0.281,-0.04,-0.5704,-0.0476,-0.8643,-0.0196l-0.6353,-1.0182c-0.1018,-0.1631,-0.305,-0.2287,-0.4815,-0.1554l-0.7353,0.3054c-0.1766,0.0733,-0.2753,0.2643,-0.2341,0.4526l0.2451,1.1185c-0.2597,0.1919,-0.4769,0.4233,-0.6779,0.6739l-1.1181,-0.2539c-0.186,-0.0422,-0.3751,0.0566,-0.4485,0.2343l-0.3067,0.7424c-0.0734,0.1777,-0.0099,0.383,0.1507,0.4868l0.9341,0.6041c-0.0435,0.3006,-0.0586,0.6078,-0.0264,0.9229l-0.9698,0.6143C7.8533,7.0338,7.788,7.2391,7.8605,7.4177zM12.4459,4.2211c0.9349,-0.1219,1.7906,0.545,1.9112,1.4894c0.1206,0.9444,-0.5395,1.8088,-1.4744,1.9306c-0.9349,0.1219,-1.7906,-0.545,-1.9112,-1.4894C10.8508,5.2073,11.5109,4.343,12.4459,4.2211zM30.7435,15.7173l-2.3253,-0.8459l-0.1618,-1.1177l1.8744,-1.5839c0.1403,-0.1185,0.1796,-0.32,0.0942,-0.4834l-0.4391,-0.8407c-0.0858,-0.1643,-0.2739,-0.2451,-0.4506,-0.1937l-2.3553,0.6861l-0.8327,-0.8574l0.6637,-2.3238c0.0534,-0.1872,-0.0373,-0.3855,-0.213,-0.4657l-0.9009,-0.4111c-0.1623,-0.0741,-0.3537,-0.027,-0.4641,0.1142l-1.4836,1.8967l-1.2115,-0.2218l-0.8618,-2.2672c-0.066,-0.1736,-0.2437,-0.2765,-0.4254,-0.2462l-1.0248,0.171c-0.1813,0.0302,-0.3167,0.1848,-0.3244,0.3702l-0.101,2.4289l-1.1241,0.5691l-2.0036,-1.352c-0.1533,-0.1035,-0.3576,-0.0836,-0.4885,0.0475l-0.7565,0.7573c-0.0646,0.0646,-0.1014,0.1474,-0.1113,0.2331c1.5362,0.5043,2.6945,1.3254,2.6945,2.6558c0,0.4963,0.0014,1.401,0.0014,1.401c0,0.5491,-0.0003,3.4486,-0.0007,6.3269l0.0036,0.0038l-0.0036,0.013c-0.0001,1.0166,-0.0002,2.0293,-0.0003,2.935l0.466,0.2482c0.1654,0.0881,0.3695,0.0445,0.4854,-0.1037l1.4743,-1.8856l1.2115,0.2218l0.8465,2.192c0.0652,0.1688,0.2365,0.2705,0.4143,0.2458l1.0275,-0.1428c0.1875,-0.026,0.329,-0.1849,0.3349,-0.376l0.0733,-2.369l1.1582,-0.6172l2.0504,1.353c0.151,0.0996,0.35,0.081,0.4803,-0.0449l0.7201,-0.6957c0.1393,-0.1346,0.1596,-0.3522,0.0477,-0.5107l-1.3761,-1.9487l0.6042,-1.1819l2.4545,-0.1345c0.1811,-0.0099,0.3313,-0.1453,0.3615,-0.326l0.1488,-0.8894C31.0258,15.9643,30.9201,15.7816,30.7435,15.7173zM22.5992,18.2484c-1.6284,0.2717,-3.1665,-0.8414,-3.4355,-2.4863c-0.269,-1.6449,0.833,-3.1986,2.4614,-3.4703c1.6284,-0.2717,3.1665,0.8414,3.4355,2.4863C25.3296,16.423,24.2276,17.9767,22.5992,18.2484z" fill="#797979"/>
  </g>
</svg>